<?xml version="1.0"?>
<svg xmlns="http://www.w3.org/2000/svg" xmlns:xlink="http://www.w3.org/1999/xlink" version="1.1" x="0px" y="0px" viewBox="0 0 100 125" enable-background="new 0 0 100 100" xml:space="preserve" width="100" height="125"><g><path d="M97.571,67.565c-0.272-0.584-0.866-0.961-1.511-0.961H85.368V27.919c0-1.632-1.334-2.959-2.974-2.959H15.69   c-1.64,0-2.974,1.328-2.974,2.959v38.685H3.938c-0.645,0-1.237,0.377-1.515,0.971c-0.256,0.557-0.183,1.213,0.183,1.699   c0.155,0.219,0.35,0.52,0.574,0.865c1.742,2.681,3.34,4.9,5.262,4.9h84.363c2.147,0,3.229-2.559,4.097-4.615   c0.209-0.495,0.408-0.965,0.566-1.263C97.771,68.687,97.813,68.083,97.571,67.565z M15.69,27.96l66.678-0.041v38.685H15.715   L15.69,27.96z M92.666,72.04H8.523c-0.511-0.224-1.414-1.439-2.097-2.436h6.29h72.652h8.625   C93.632,70.448,93.065,71.709,92.666,72.04z"></path><path d="M49.038,53.358c-0.737,0-1.456,0.301-1.975,0.824c-0.027,0.027-0.042,0.063-0.041,0.102c0,0.037,0.015,0.072,0.042,0.1   l1.874,1.851c0.028,0.026,0.063,0.04,0.1,0.04s0.071-0.013,0.099-0.04l1.883-1.842c0.027-0.026,0.043-0.063,0.043-0.101   c0-0.037-0.014-0.073-0.041-0.1C50.503,53.661,49.779,53.358,49.038,53.358z"></path><path d="M49.068,48.114c-2.565,0-4.994,1.24-6.498,3.318l1.621,1.172c1.128-1.56,2.951-2.49,4.876-2.49   c1.896,0,3.701,0.908,4.832,2.43l1.605-1.193C54,49.323,51.594,48.114,49.068,48.114z"></path><path d="M49.059,42.919c-3.936,0-7.637,1.734-10.155,4.759l1.537,1.28c2.137-2.566,5.278-4.039,8.618-4.039   c3.322,0,6.452,1.46,8.588,4.004l1.532-1.285C56.662,44.64,52.973,42.919,49.059,42.919z"></path><path d="M48.992,37.431c-5.43,0-10.582,2.354-14.137,6.458l1.512,1.31c3.174-3.665,7.776-5.768,12.625-5.768   c4.904,0,9.541,2.143,12.719,5.877l1.523-1.296C59.675,39.829,54.484,37.431,48.992,37.431z"></path></g><text x="0" y="115" fill="#000000" font-size="5px" font-weight="bold" font-family="'Helvetica Neue', Helvetica, Arial-Unicode, Arial, Sans-serif">Created by Nikita Kozin</text><text x="0" y="120" fill="#000000" font-size="5px" font-weight="bold" font-family="'Helvetica Neue', Helvetica, Arial-Unicode, Arial, Sans-serif">from the Noun Project</text></svg>