<?xml version="1.0"?>
<svg xmlns="http://www.w3.org/2000/svg" xmlns:xlink="http://www.w3.org/1999/xlink" version="1.1" x="0px" y="0px" viewBox="0 0 100 125" style="enable-background:new 0 0 100 100;" xml:space="preserve" width="100" height="125"><style type="text/css">
	.st0{display:none;}
	.st1{display:inline;}
	.st2{display:inline;fill:#FFFFFF;}
	.st3{fill:#FFFFFF;}
</style><g class="st0"><path class="st1" d="M63,22V5.7C63,3.9,61.8,3,60.1,3H39.9C38.2,3,37,3.9,37,5.7V22h-7v64.7C30,92.6,34.5,98,40.4,98h19.1   C65.5,98,70,92.6,70,86.7V22H63z M39,5.7C39,5.1,39.4,5,39.9,5h20.1C60.6,5,61,5.1,61,5.7V22H39V5.7z"></path><path class="st2" d="M59.3,46h-4c-0.6,0-1,0.4-1,1v4c0,0.6,0.4,1,1,1h1.2v5.9l-5.5,4V46.4h1.4c0.4,0,0.7-0.1,0.7-0.5   c0.2-0.3,0.2-0.7,0.1-1l-2.3-4.7c-0.1-0.4-0.5-0.6-0.9-0.6c-0.4,0-0.7,0.2-0.9,0.6l-2.3,4.7c-0.1,0.3-0.1,0.7,0.1,1   c0.2,0.3,0.5,0.5,0.9,0.5h1.4v19.9l-5.5-4v-6.3c1.1-0.4,1.9-1.5,1.9-2.7c0-1.6-1.3-2.9-2.9-2.9c-1.6,0-2.9,1.3-2.9,2.9   c0,1.2,0.8,2.3,1.9,2.7v6.8c0,0.3,0.2,0.6,0.4,0.8l7.1,5.2v2.5c-1.7,0.4-3,2-3,3.9c0,2.2,1.8,4,4,4c2.2,0,4-1.8,4-4   c0-1.9-1.3-3.4-3-3.9v-7.1l7-5.1c0.3-0.2,0.4-0.5,0.4-0.8v-6.4h0.9c0.6,0,1-0.5,1-1v-4C60.3,46.4,59.9,46,59.3,46z"></path></g><g class="st0"><path class="st1" d="M50,97.5c-11.8,0-21.3-9.6-21.3-21.3V50.3C28.7,38.5,38.2,29,50,29s21.3,9.6,21.3,21.3v25.9   C71.3,87.9,61.8,97.5,50,97.5z M50,32.9c-9.6,0-17.4,7.8-17.4,17.4v25.9c0,9.6,7.8,17.4,17.4,17.4s17.4-7.8,17.4-17.4V50.3   C67.4,40.7,59.6,32.9,50,32.9z"></path><path class="st1" d="M50,50.5L50,50.5c-1.4,0-2.5-1.1-2.5-2.5v-5.9c0-1.4,1.1-2.5,2.5-2.5h0c1.4,0,2.5,1.1,2.5,2.5V48   C52.5,49.4,51.4,50.5,50,50.5z"></path><path class="st1" d="M50,31.9c-0.5,0-1-0.4-1-1V20.2c0-2.7,2.2-4.9,4.9-4.9h2.9c1.6,0,3-1.3,3-3V3.5c0-0.5,0.4-1,1-1   c0.5,0,1,0.4,1,1v8.8c0,2.7-2.2,4.9-4.9,4.9h-2.9c-1.6,0-3,1.3-3,3v10.8C51,31.5,50.5,31.9,50,31.9z"></path></g><g class="st0"><g class="st1"><path d="M73,77.9c-13.5,0-24.5-11-24.5-24.5C48.5,39.9,59.5,29,73,29s24.5,11,24.5,24.5C97.5,67,86.5,77.9,73,77.9z M73,33.5    c-11,0-20,9-20,20c0,11,9,20,20,20s20-9,20-20C93,42.4,84,33.5,73,33.5z"></path><rect x="70.2" y="25.6" width="5.7" height="5.7"></rect><path d="M78.4,26.9H67.6c-0.9,0-1.6-0.7-1.6-1.6v-1.6c0-0.9,0.7-1.6,1.6-1.6h10.9c0.9,0,1.6,0.7,1.6,1.6v1.6    C80.1,26.2,79.3,26.9,78.4,26.9z"></path><circle cx="73" cy="53.5" r="3.5"></circle><path d="M83.9,41.9c0,0-0.5,0.9-1.3,2.2c-0.4,0.7-0.8,1.4-1.3,2.2c-0.5,0.8-1.1,1.6-1.6,2.5c-0.6,0.8-1,1.8-1.6,2.5    c-0.6,0.7-1.4,1.2-2.1,1.5c-0.7,0.3-1.4,0.6-2,0.7c-0.5,0.1-0.9,0.1-0.9,0.1l-0.3-0.3c0,0,0-0.4,0-0.9c0-0.5,0.2-1.2,0.5-2    c0.3-0.7,0.7-1.6,1.3-2.2c0.7-0.7,1.6-1.1,2.4-1.8c0.8-0.6,1.6-1.3,2.3-1.8c0.7-0.6,1.5-1.1,2.1-1.5c1.2-0.9,2.1-1.4,2.1-1.4    L83.9,41.9z"></path><g><path d="M57.8,55.1h-1.1c-0.6,0-1.1-0.5-1.1-1.1v-1.1c0-0.6,0.5-1.1,1.1-1.1h1.1c0.6,0,1.1,0.5,1.1,1.1V54     C58.9,54.6,58.4,55.1,57.8,55.1z"></path><path d="M89.3,55.1h-1.1c-0.6,0-1.1-0.5-1.1-1.1v-1.1c0-0.6,0.5-1.1,1.1-1.1h1.1c0.6,0,1.1,0.5,1.1,1.1V54     C90.4,54.6,89.9,55.1,89.3,55.1z"></path><path d="M71.4,38.3v-1.1c0-0.6,0.5-1.1,1.1-1.1h1.1c0.6,0,1.1,0.5,1.1,1.1v1.1c0,0.6-0.5,1.1-1.1,1.1h-1.1     C71.9,39.3,71.4,38.9,71.4,38.3z"></path><path d="M71.4,69.7v-1.1c0-0.6,0.5-1.1,1.1-1.1h1.1c0.6,0,1.1,0.5,1.1,1.1v1.1c0,0.6-0.5,1.1-1.1,1.1h-1.1     C71.9,70.8,71.4,70.3,71.4,69.7z"></path></g></g><path class="st1" d="M41.9,44.3H20.1c-1.2,0-2.2-1-2.2-2.2s1-2.2,2.2-2.2h21.8c1.2,0,2.2,1,2.2,2.2S43.1,44.3,41.9,44.3z"></path><path class="st1" d="M41.9,55.2H12.2c-1.2,0-2.2-1-2.2-2.2c0-1.2,1-2.2,2.2-2.2h29.6c1.2,0,2.2,1,2.2,2.2   C44.1,54.2,43.1,55.2,41.9,55.2z"></path><path class="st1" d="M41.9,66.1H4.7c-1.2,0-2.2-1-2.2-2.2c0-1.2,1-2.2,2.2-2.2h37.1c1.2,0,2.2,1,2.2,2.2   C44.1,65,43.1,66.1,41.9,66.1z"></path></g><g class="st0"><path class="st1" d="M55,14.5V11h2.9c2.3,0,4.2-1.7,4.2-4s-1.9-4-4.2-4H42.2C39.9,3,38,4.7,38,7s1.9,4,4.2,4H45v3.5   c-19,2.2-34.8,18-36.5,37.5C6.1,78,27.8,99.6,53.8,97.3c19.9-1.8,36-17.8,37.8-37.7C93.6,36.7,77,17.1,55,14.5z M46.3,89.7   C30.5,88,17.9,75.3,16.2,59.6c-2.3-21.6,15.9-39.8,37.5-37.5c15.8,1.7,28.4,14.3,30.1,30.1C86.1,73.8,67.9,92,46.3,89.7z"></path><path class="st1" d="M68,35.7c0,0-1.5,0.9-3.6,2.5c-1.1,0.7-2.3,1.6-3.6,2.6c-1.3,1-2.6,2-3.9,3.1c-1.3,1.1-2.9,1.9-4,3   c-0.9,1-1.5,2.1-2,3.2C50.6,50,50.3,50,50,50c-3.2,0-5.9,2.6-5.9,5.9c0,3.2,2.6,5.9,5.9,5.9c3.2,0,5.9-2.6,5.9-5.9   c0-0.5-0.1-0.9-0.2-1.4c1-0.6,2.1-1.3,3-2.3c1-1.2,1.7-2.9,2.7-4.3c0.9-1.4,1.9-2.8,2.8-4.2c0.9-1.4,1.6-2.7,2.3-3.8   c1.3-2.2,2.1-3.8,2.1-3.8L68,35.7z"></path><path class="st1" d="M23.3,58.6L23.3,58.6c-1.5,0-2.8-1.2-2.8-2.8v0c0-1.5,1.2-2.8,2.8-2.8h0c1.5,0,2.8,1.2,2.8,2.8v0   C26,57.4,24.8,58.6,23.3,58.6z"></path><path class="st1" d="M76.7,58.6L76.7,58.6c-1.5,0-2.8-1.2-2.8-2.8v0c0-1.5,1.2-2.8,2.8-2.8h0c1.5,0,2.8,1.2,2.8,2.8v0   C79.5,57.4,78.3,58.6,76.7,58.6z"></path><path class="st1" d="M47.2,29.1L47.2,29.1c0-1.5,1.2-2.8,2.8-2.8h0c1.5,0,2.8,1.2,2.8,2.8v0c0,1.5-1.2,2.8-2.8,2.8h0   C48.5,31.9,47.2,30.7,47.2,29.1z"></path><path class="st1" d="M47.2,82.6L47.2,82.6c0-1.5,1.2-2.8,2.8-2.8h0c1.5,0,2.8,1.2,2.8,2.8v0c0,1.5-1.2,2.8-2.8,2.8h0   C48.5,85.4,47.2,84.1,47.2,82.6z"></path></g><g class="st0"><g class="st1"><path d="M74.8,89.3H63.3c-1.3,0-2.5-1-2.7-2.3l-0.8-5c-5.1,0.5-11,0.6-16.5-0.1L42.6,87c-0.2,1.3-1.4,2.3-2.7,2.3H28.3    c-1.5,0-2.7-1.2-2.7-2.7V76c-4.3-2.6-7.7-6-10.2-10.1L4.4,62.5c-1.1-0.4-1.9-1.4-1.9-2.6V45.7c0-1.2,0.8-2.2,1.9-2.6l8-2.5    c1.9-6.2,5.9-10.5,12.3-13.2c0.8-10.6,3.1-15.9,7.2-16.6c4.2-0.8,8.2,3.4,12.7,13.2c2-0.1,4.3-0.1,6.7-0.1    c26.7,0,40.2,9.8,40.2,29.3c0,11.3-4.7,19.4-13.9,24.2v9.2C77.6,88.1,76.3,89.3,74.8,89.3z M65.6,83.9h6.5v-8.2    c0-1.1,0.6-2,1.6-2.5C82,69.4,86,62.8,86,53.1c0-5.9,0-23.8-34.7-23.8c-3.1,0-5.9,0.1-8.3,0.2c-1.2,0.1-2.2-0.6-2.6-1.6    c-4-9.3-6.8-11.6-7.5-11.7c-0.5,0.3-2.3,3.4-2.8,13.3c-0.1,1.1-0.8,2.1-1.8,2.4c-6.1,2.2-9.6,5.8-10.9,11.5    c-0.2,0.9-0.9,1.7-1.8,2L8,47.7v10.2l10.2,3.2c0.7,0.2,1.2,0.7,1.6,1.3c2.2,4,5.5,7.3,10,9.7c0.9,0.5,1.4,1.4,1.4,2.4v9.4h6.5    l0.8-5.5c0.1-0.7,0.5-1.4,1.1-1.8c0.6-0.4,1.3-0.6,2.1-0.5c6.7,1.2,14.2,1,20.2,0.2c1.5-0.2,2.8,0.8,3.1,2.3L65.6,83.9z"></path></g><path class="st1" d="M88.5,46.1c-0.3,0-0.6,0-0.9-0.1c-1-0.2-1.6-1.2-1.4-2.2c0.2-1,1.2-1.6,2.2-1.4c0.6,0.1,1.5-0.6,2.3-1.8   c2.1-3.2,3.2-7,3.2-10.8c0-1,0.9-1.8,1.8-1.8c1,0,1.8,0.8,1.8,1.8c0,4.5-1.4,9-3.8,12.8C92.2,44.8,90.4,46.1,88.5,46.1z"></path><g class="st1"><path d="M52.5,69.9h-2.1v-3.5c-2.9-0.3-5-0.8-6.4-1.5c-2.5-1.4-3.7-3.7-3.6-7h5.9c0.2,1.5,0.5,2.5,0.8,3c0.6,0.8,1.7,1.3,3.3,1.5    v-7.6l-1.8-0.4c-2.8-0.7-4.7-1.6-5.9-2.8c-1.1-1.2-1.7-2.6-1.7-4.3c0-1.1,0.2-2.1,0.7-3c0.4-0.9,1.1-1.7,1.9-2.3    c1-0.8,2.2-1.4,3.4-1.7c0.8-0.2,1.9-0.4,3.4-0.4v-2.4h2.1v2.4c2.3,0.2,4.2,0.6,5.5,1.4c2.4,1.3,3.7,3.3,3.8,6.2h-5.7    c-0.1-1.1-0.3-1.8-0.6-2.3c-0.5-0.8-1.5-1.3-3-1.4v6.8c3.4,1,5.7,1.8,6.9,2.6c1.9,1.2,2.9,3,2.9,5.3c0,3-1.3,5.2-4,6.5    c-1.6,0.8-3.6,1.3-5.8,1.5V69.9z M50.4,43.8c-1.3,0-2.2,0.3-2.8,0.8c-0.6,0.5-0.9,1.2-0.9,2.2c0,1,0.5,1.8,1.4,2.4    c0.5,0.3,1.3,0.6,2.3,0.9V43.8z M52.5,62.3c1.1-0.1,2-0.3,2.5-0.6c0.9-0.5,1.4-1.5,1.4-2.8c0-1-0.4-1.8-1.3-2.4    c-0.5-0.3-1.4-0.7-2.6-1.1V62.3z"></path></g></g><g class="st0"><g class="st1"><path d="M74.8,89.3H63.3c-1.3,0-2.5-1-2.7-2.3l-0.8-5c-5.1,0.5-11,0.6-16.5-0.1L42.6,87c-0.2,1.3-1.4,2.3-2.7,2.3H28.3    c-1.5,0-2.7-1.2-2.7-2.7V76c-4.3-2.6-7.7-6-10.2-10.1L4.4,62.5c-1.1-0.4-1.9-1.4-1.9-2.6V45.7c0-1.2,0.8-2.2,1.9-2.6l8-2.5    c1.9-6.2,5.9-10.5,12.3-13.2c0.8-10.6,3.1-15.9,7.2-16.6c4.2-0.8,8.2,3.4,12.7,13.2c2-0.1,4.3-0.1,6.7-0.1    c26.7,0,40.2,9.8,40.2,29.3c0,11.3-4.7,19.4-13.9,24.2v9.2C77.6,88.1,76.3,89.3,74.8,89.3z M65.6,83.9h6.5v-8.2    c0-1.1,0.6-2,1.6-2.5C82,69.4,86,62.8,86,53.1c0-5.9,0-23.8-34.7-23.8c-3.1,0-5.9,0.1-8.3,0.2c-1.2,0.1-2.2-0.6-2.6-1.6    c-4-9.3-6.8-11.6-7.5-11.7c-0.5,0.3-2.3,3.4-2.8,13.3c-0.1,1.1-0.8,2.1-1.8,2.4c-6.1,2.2-9.6,5.8-10.9,11.5    c-0.2,0.9-0.9,1.7-1.8,2L8,47.7v10.2l10.2,3.2c0.7,0.2,1.2,0.7,1.6,1.3c2.2,4,5.5,7.3,10,9.7c0.9,0.5,1.4,1.4,1.4,2.4v9.4h6.5    l0.8-5.5c0.1-0.7,0.5-1.4,1.1-1.8c0.6-0.4,1.3-0.6,2.1-0.5c6.7,1.2,14.2,1,20.2,0.2c1.5-0.2,2.8,0.8,3.1,2.3L65.6,83.9z"></path></g><path class="st1" d="M88.5,46.1c-0.3,0-0.6,0-0.9-0.1c-1-0.2-1.6-1.2-1.4-2.2c0.2-1,1.2-1.6,2.2-1.4c0.6,0.1,1.5-0.6,2.3-1.8   c2.1-3.2,3.2-7,3.2-10.8c0-1,0.9-1.8,1.8-1.8c1,0,1.8,0.8,1.8,1.8c0,4.5-1.4,9-3.8,12.8C92.2,44.8,90.4,46.1,88.5,46.1z"></path></g><g class="st0"><g class="st1"><path d="M76.8,71.3c-0.9-0.4-2.3-1.1-4-2.1c-0.4,2.1-0.8,3.9-1,5.1c0.3,0.2,0.6,0.3,0.9,0.5c1.2,0.8,2.2,1.8,3,2.9h1.9    C76.6,75.8,76.3,73.6,76.8,71.3z"></path><path d="M91.7,76.2c0.1-0.2,0.2-0.4,0.3-0.6v-4.5c-0.4-0.8-1-1.6-1.8-2.1c-0.9-0.6-1.8-0.8-2.8-0.8c-1.1,0-2.3,0.4-3.2,1.1    c-0.4,0.3-0.8,0.8-1.1,1.2c-0.8,1.2-1,2.5-0.7,3.9c0.3,1.4,1.1,2.5,2.2,3.3c0.1,0,0.1,0.1,0.2,0.1h5.3    C90.7,77.4,91.3,76.9,91.7,76.2z"></path><path d="M62.1,74.2l1-10.3c-2.8-1.6-5.3-3.2-7.8-4.8c-4.8-3.1-9.4-7.6-13.9-13.5c-5-6.6-2.8-9.3-2.6-9.6l0.4-0.5l24.9,16.2L67,23    l0.6,0c0.4,0,3.9,0,5.9,7.9c1.8,7.1,2.5,13.6,2,19.2c-0.3,2.7-0.6,5.5-1,8.4l8.1,5.3c3-1.5,6.5-1.5,9.5-0.1V5.8H2.5v72h55.3    C58.9,76.3,60.4,75.1,62.1,74.2z"></path></g><polygon class="st2" points="72.1,24.8 72.1,32.3 72.1,38.1 72.1,38.5 22.5,38.5 22.5,38.1 22.5,32.3 22.5,24.8 22.5,19.1    22.5,13.3 72.1,13.3 72.1,19.1  "></polygon><polygon class="st2" points="72.1,51.3 72.1,58.8 72.1,64.6 72.1,70.4 22.5,70.4 22.5,64.6 22.5,58.8 22.5,51.3 22.5,45.6    22.5,45.1 72.1,45.1 72.1,45.6  "></polygon><rect x="8.5" y="64.6" class="st2" width="7.9" height="7.5"></rect><rect x="8.5" y="51.3" class="st2" width="7.9" height="7.5"></rect><rect x="8.5" y="38.1" class="st2" width="7.9" height="7.5"></rect><rect x="8.5" y="24.8" class="st2" width="7.9" height="7.5"></rect><rect x="8.5" y="11.6" class="st2" width="7.9" height="7.5"></rect><rect x="78.1" y="64.6" class="st2" width="7.9" height="7.5"></rect><rect x="78.1" y="51.3" class="st2" width="7.9" height="7.5"></rect><rect x="78.1" y="38.1" class="st2" width="7.9" height="7.5"></rect><rect x="78.1" y="24.8" class="st2" width="7.9" height="7.5"></rect><rect x="78.1" y="11.6" class="st2" width="7.9" height="7.5"></rect><path class="st1" d="M92.9,64.9c-3.2-2.1-7.1-2.2-10.4-0.4l-8.9-5.8c0.4-2.7,0.7-5.7,1-8.8c0.6-6.5-0.5-13.3-1.9-19   c-2-7.6-5.1-7.4-5.1-7.4l-2.8,29.4L39.5,36.5c0,0-2.1,2.3,2.6,8.6c3.5,4.7,8.2,9.7,13.7,13.3c2.8,1.9,5.6,3.5,8.1,5l-1.1,11.2   c-3.4,1.4-5.8,4.6-6.2,8.4c-0.4,3.8,1.4,7.4,4.6,9.4c1.4,0.9,2.9,1.4,4.5,1.6c2.7,0.3,5.3-0.6,7.4-2.3c2.1-1.7,3.4-4.1,3.6-6.8   c0.4-3.8-1.4-7.4-4.6-9.4c0,0,0,0,0,0c-0.4-0.3-0.9-0.5-1.4-0.7c0.3-1.5,0.8-3.8,1.3-6.7c2.3,1.2,4.2,2.2,5.4,2.8   c-1,4.1,0.6,8.5,4.3,10.9c4.7,3,10.9,1.7,14-3C98.9,74.2,97.6,68,92.9,64.9z M72.6,84.6c-0.1,1.6-0.9,3-2.1,4   c-1.2,1-2.8,1.5-4.3,1.3c-1-0.1-1.9-0.4-2.7-0.9c-1.9-1.2-2.9-3.3-2.7-5.5c0.2-2.5,2.1-4.6,4.6-5.2c0.6-0.1,1.3-0.2,1.9-0.1   c1,0.1,1.9,0.4,2.7,0.9C71.8,80.3,72.8,82.4,72.6,84.6z M92.4,76.6c-1.8,2.7-5.5,3.5-8.2,1.7c-2.7-1.8-3.5-5.5-1.7-8.2   c0.3-0.5,0.8-1,1.3-1.4c2-1.6,4.8-1.7,6.9-0.3C93.4,70.2,94.1,73.9,92.4,76.6z"></path></g><g class="st0"><path class="st1" d="M12.8,66h74.3c2.3,0,4.4,0.7,5.9,2.2L81,9.7C80.9,6.4,78.2,4,74.8,4H25.2c-3.3,0-6,2.3-6.2,5.6L7,68.4   C8.5,66.9,10.5,66,12.8,66z"></path><path class="st1" d="M87.2,96.2H12.8c-3.4,0-6.2-2.8-6.2-6.2V73.7c0-3.4,2.8-6.2,6.2-6.2h74.3c3.4,0,6.2,2.8,6.2,6.2v16.4   C93.3,93.5,90.6,96.2,87.2,96.2z M12.8,71.6c-1.1,0-2.1,0.9-2.1,2.1v16.4c0,1.1,0.9,2.1,2.1,2.1h74.3c1.1,0,2.1-0.9,2.1-2.1V73.7   c0-1.1-0.9-2.1-2.1-2.1H12.8z"></path><circle class="st1" cx="18.9" cy="81.9" r="3.1"></circle><path class="st2" d="M34.5,33.5c-0.1-0.4-0.1-0.8-0.1-1.2c0-4.3,3.5-7.8,7.8-7.8c1.5,0,3,0.4,4.2,1.2c1.9-3.5,5.6-5.9,9.9-5.9   c6.2,0,11.3,5,11.3,11.3c0,0.1,0,0.2,0,0.3c2.8,1.3,4.7,4.1,4.7,7.4c0,4.5-3.7,8.2-8.2,8.2H34.6c-3.7,0-6.8-3-6.8-6.8   C27.8,36.6,30.8,33.6,34.5,33.5z"></path></g><g class="st0"><path class="st1" d="M12.8,66h74.3c2.3,0,4.4,0.7,5.9,2.2L81,9.7C80.9,6.4,78.2,4,74.8,4H25.2c-3.3,0-6,2.3-6.2,5.6L7,68.4   C8.5,66.9,10.5,66,12.8,66z"></path><path class="st1" d="M87.2,96.2H12.8c-3.4,0-6.2-2.8-6.2-6.2V73.7c0-3.4,2.8-6.2,6.2-6.2h74.3c3.4,0,6.2,2.8,6.2,6.2v16.4   C93.3,93.5,90.6,96.2,87.2,96.2z M12.8,71.6c-1.1,0-2.1,0.9-2.1,2.1v16.4c0,1.1,0.9,2.1,2.1,2.1h74.3c1.1,0,2.1-0.9,2.1-2.1V73.7   c0-1.1-0.9-2.1-2.1-2.1H12.8z"></path><circle class="st1" cx="18.9" cy="81.9" r="3.1"></circle></g><g class="st0"><path class="st1" d="M50,88.4c-0.5,0-1-0.2-1.4-0.4c-0.6-0.4-1-1.2-1-1.9V21.8c0-1,0.6-1.9,1.6-2.2c1-0.3,24-8,46.7,0   c0.9,0.3,1.6,1.2,1.6,2.2v64.3c0,0.8-0.4,1.5-1,1.9c-0.6,0.4-1.4,0.6-2.2,0.3c-21.1-7.4-43.4-0.1-43.6,0   C50.5,88.4,50.3,88.4,50,88.4z M52.4,23.6v59.3c6.8-1.8,23.4-5,40.4-0.1V23.5C75.4,18,57.7,22.1,52.4,23.6z"></path><path class="st1" d="M50,88.4c-0.3,0-0.5,0-0.8-0.1c-21.1-7.4-43.4-0.1-43.6,0c-0.7,0.2-1.5,0.1-2.1-0.3c-0.6-0.4-1-1.2-1-1.9V21.8   c0-1,0.6-1.9,1.6-2.2c1-0.3,24-8,46.7,0c0.9,0.3,1.6,1.2,1.6,2.2v64.3c0,0.8-0.4,1.5-1,1.9C51,88.3,50.5,88.4,50,88.4z M7.2,23.6   v59.3c6.8-1.8,23.4-5,40.4-0.1V23.5C30.3,18,12.6,22.1,7.2,23.6z"></path><path class="st2" d="M4.9,81.7c0,0,23-7.8,45.1,0V17.4c-22.1-7.8-45.1,0-45.1,0V81.7z"></path><path class="st1" d="M50,84.1c-0.3,0-0.5,0-0.8-0.1c-21.1-7.4-43.4-0.1-43.6,0c-0.7,0.2-1.5,0.1-2.1-0.3c-0.6-0.4-1-1.2-1-1.9V17.4   c0-1,0.6-1.9,1.6-2.2c1-0.3,24-8,46.7,0c0.9,0.3,1.6,1.2,1.6,2.2v64.3c0,0.8-0.4,1.5-1,1.9C51,83.9,50.5,84.1,50,84.1z M7.2,19.2   v59.3c6.8-1.8,23.4-5,40.4-0.1V19.1C30.3,13.6,12.6,17.7,7.2,19.2z"></path><path class="st2" d="M50,81.7c0,0,23-7.8,45.1,0V17.4C73,9.6,50,17.4,50,17.4V81.7z"></path><path class="st1" d="M41,48.1c-0.2,0-0.3,0-0.5-0.1c-12.7-4.5-26.1,0-26.3,0c-0.7,0.3-1.5-0.1-1.8-0.9c-0.3-0.7,0.1-1.6,0.9-1.8   c0.6-0.2,14.5-4.8,28.1,0c0.7,0.3,1.1,1.1,0.9,1.8C42.2,47.7,41.6,48.1,41,48.1z"></path><path class="st1" d="M41,31.3c-0.2,0-0.3,0-0.5-0.1c-12.7-4.5-26.1,0-26.3,0c-0.7,0.3-1.5-0.1-1.8-0.9c-0.3-0.7,0.1-1.6,0.9-1.8   c0.6-0.2,14.5-4.8,28.1,0c0.7,0.3,1.1,1.1,0.9,1.8C42.2,30.9,41.6,31.3,41,31.3z"></path><path class="st1" d="M13.8,64.9c-0.6,0-1.1-0.4-1.3-1c-0.3-0.7,0.1-1.6,0.9-1.8c0.6-0.2,14.5-4.8,28.1,0c0.7,0.3,1.1,1.1,0.9,1.8   c-0.3,0.7-1.1,1.1-1.8,0.9c-12.7-4.5-26.1,0-26.3,0C14.1,64.9,14,64.9,13.8,64.9z"></path><path class="st1" d="M86.2,48.1c-0.2,0-0.3,0-0.5-0.1c-12.7-4.5-26.1,0-26.3,0c-0.7,0.3-1.6-0.1-1.8-0.9c-0.3-0.7,0.1-1.6,0.9-1.8   c0.6-0.2,14.5-4.8,28.1,0c0.7,0.3,1.1,1.1,0.9,1.8C87.3,47.7,86.7,48.1,86.2,48.1z"></path><path class="st1" d="M86.2,31.3c-0.2,0-0.3,0-0.5-0.1c-12.7-4.5-26.1,0-26.3,0c-0.7,0.3-1.6-0.1-1.8-0.9c-0.3-0.7,0.1-1.6,0.9-1.8   c0.6-0.2,14.5-4.8,28.1,0c0.7,0.3,1.1,1.1,0.9,1.8C87.3,30.9,86.7,31.3,86.2,31.3z"></path><path class="st1" d="M59,64.9c-0.6,0-1.1-0.4-1.3-1c-0.3-0.7,0.1-1.6,0.9-1.8c0.6-0.2,14.5-4.8,28.1,0c0.7,0.3,1.1,1.1,0.9,1.8   c-0.3,0.7-1.1,1.1-1.8,0.9c-12.7-4.5-26.1,0-26.3,0C59.3,64.9,59.1,64.9,59,64.9z"></path><path class="st1" d="M50,84.1c-0.5,0-1-0.2-1.4-0.4c-0.6-0.4-1-1.2-1-1.9V17.4c0-1,0.6-1.9,1.6-2.2c1-0.3,24-8,46.7,0   c0.9,0.3,1.6,1.2,1.6,2.2v64.3c0,0.8-0.4,1.5-1,1.9c-0.6,0.4-1.4,0.6-2.2,0.3c-21.1-7.4-43.4-0.1-43.6,0C50.5,84,50.3,84.1,50,84.1   z M52.4,19.2v59.4c6.8-1.8,23.4-5,40.4-0.1V19.1C75.4,13.6,57.7,17.7,52.4,19.2z"></path></g><g class="st0"><path class="st1" d="M77.7,94.1C69.9,94.1,64.5,81,61.8,72H38.2c-2.8,9-8.1,22.2-15.9,22.2C9.9,94.1,2.5,60.5,2.5,51.7   C2.5,40.8,11.4,32,22.3,32c4.3,0,8.5,1.4,12,4h31.5c3.4-2.6,7.6-4,12-4c10.9,0,19.8,8.9,19.8,19.8C97.5,60.5,90.1,94.1,77.7,94.1z    M36.4,67.1h27.2c1.1,0,2,0.7,2.3,1.7c4,14,9,20.4,11.8,20.4c6.8,0,15-26.9,15-37.5c0-8.2-6.7-15-15-15c-3.5,0-6.9,1.2-9.6,3.5   c-0.4,0.4-1,0.6-1.5,0.6H33.4c-0.6,0-1.1-0.2-1.5-0.6c-2.7-2.2-6.1-3.5-9.6-3.5c-8.2,0-15,6.7-15,15c0,10.6,8.1,37.5,15,37.5   c2.9,0,7.8-6.4,11.8-20.4C34.4,67.8,35.3,67.1,36.4,67.1z"></path><g class="st1"><circle cx="77.5" cy="45.6" r="2.8"></circle><circle cx="70.8" cy="52.4" r="2.8"></circle><circle cx="84.3" cy="52.4" r="2.8"></circle><circle cx="77.5" cy="59.1" r="2.8"></circle></g><path class="st1" d="M29,49.8h-3.6v-3.6c0-1.4-1.1-2.6-2.6-2.6c-1.4,0-2.6,1.1-2.6,2.6v3.6h-3.6c-1.4,0-2.6,1.1-2.6,2.6   c0,1.4,1.1,2.6,2.6,2.6h3.6v3.6c0,1.4,1.1,2.6,2.6,2.6c1.4,0,2.6-1.1,2.6-2.6v-3.6H29c1.4,0,2.6-1.1,2.6-2.6   C31.5,51,30.4,49.8,29,49.8z"></path><g class="st1"><path d="M53.8,57.7h4.5c0.5,0,1,0.4,1,1v1.4c0,0.5-0.4,1-1,1h-4.5c-0.5,0-1-0.4-1-1v-1.4C52.8,58.1,53.3,57.7,53.8,57.7z"></path><path d="M41.7,57.7h4.5c0.5,0,1,0.4,1,1v1.4c0,0.5-0.4,1-1,1h-4.5c-0.5,0-1-0.4-1-1v-1.4C40.7,58.1,41.1,57.7,41.7,57.7z"></path></g><path class="st1" d="M50.1,39.6C50.1,39.6,50,39.6,50.1,39.6c-1.4-0.1-2.5-1.2-2.4-2.5c0-0.9,0-1.8,0-2.8c-0.1-2.8-0.2-6,1.5-9.1   c1.9-3.4,5.4-5.3,8.2-6.5c0.5-0.2,0.9-0.4,1.4-0.6c2.2-1,4.4-1.9,6-3.4c1.5-1.4,2.6-3.7,1.8-5.5c-0.5-1.2,0-2.6,1.2-3.2   c1.2-0.5,2.6,0,3.2,1.2c1.8,4-0.3,8.5-3,11c-2.2,2-4.8,3.1-7.3,4.2c-0.5,0.2-0.9,0.4-1.4,0.6c-2.3,1-4.8,2.4-6,4.5   c-1.1,1.9-1,4-0.9,6.5c0,1,0.1,2.1,0,3.1C52.5,38.6,51.4,39.6,50.1,39.6z"></path></g><g class="st0"><path class="st1" d="M50,97.5C23.8,97.5,2.5,76.2,2.5,50C2.5,23.8,23.8,2.5,50,2.5c26.2,0,47.5,21.3,47.5,47.5   C97.5,76.2,76.2,97.5,50,97.5z M50,7.6C26.6,7.6,7.6,26.6,7.6,50s19,42.4,42.4,42.4s42.4-19,42.4-42.4S73.4,7.6,50,7.6z"></path><path class="st1" d="M50,82.9c-0.4,0-0.7-0.1-1-0.2c-0.9-0.4-1.5-1.3-1.5-2.3V56.3L35.9,67.8c-1,1-2.6,1-3.6,0c-1-1-1-2.6,0-3.6   l14.1-14.1L32.3,36c-1-1-1-2.6,0-3.6c1-1,2.6-1,3.6,0L47.5,44V19.7c0-1,0.6-1.9,1.5-2.3c0.9-0.4,2-0.2,2.7,0.5l15.9,14.6   c0.5,0.5,0.8,1.1,0.8,1.8c0,0.7-0.3,1.4-0.7,1.9L53.6,50.1l14.1,14.1c0.5,0.5,0.8,1.2,0.7,1.9c0,0.7-0.3,1.4-0.8,1.8L51.7,82.2   C51.2,82.7,50.6,82.9,50,82.9z M52.5,56.3v18.3l9.7-8.7L52.5,56.3z M52.5,25.4V44l9.7-9.7L52.5,25.4z"></path></g><g class="st0"><path class="st1" d="M97,48.4l-7.5-6l-7.5-6c-0.9-0.7-2.1,0.2-2.3,1.6l-0.8,6.8L76,42.4l-7.5-6c-0.9-0.7-2.1,0.2-2.3,1.6l-0.8,6.8   l-2.9-2.4l-7.5-6c-0.9-0.7-2.1,0.2-2.3,1.6l-1.5,12l-1.5,12c-0.2,1.4,0.9,2.2,1.9,1.6l9-6l3.5-2.4L63.3,62   c-0.2,1.4,0.9,2.2,1.9,1.6l9-6l3.4-2.3L76.7,62c-0.2,1.4,0.9,2.2,1.9,1.6l9-6l9-6C97.6,50.9,97.8,49.1,97,48.4z"></path><g class="st1"><path d="M46.9,42.9H32.2c-1,0-1.8-0.8-1.8-1.8s0.8-1.8,1.8-1.8h14.7c1,0,1.8,0.8,1.8,1.8S47.9,42.9,46.9,42.9z"></path><path d="M45.2,51.8H19.1c-1,0-1.8-0.8-1.8-1.8s0.8-1.8,1.8-1.8h26.1c1,0,1.8,0.8,1.8,1.8S46.2,51.8,45.2,51.8z"></path><path d="M41.8,60.7H4.3c-1,0-1.8-0.8-1.8-1.8s0.8-1.8,1.8-1.8h37.5c1,0,1.8,0.8,1.8,1.8S42.8,60.7,41.8,60.7z"></path></g></g><path class="st0" d="M33.8,97.5c-0.3,0-0.5-0.1-0.8-0.2c-0.8-0.4-1.3-1.3-1.1-2.2l8.3-37.5H27.1c-0.7,0-1.4-0.4-1.7-1  s-0.3-1.4,0.1-2L61.1,3.3c0.5-0.7,1.5-1,2.3-0.7c0.8,0.3,1.3,1.2,1.2,2.1l-5.8,37.7h14c0.7,0,1.4,0.4,1.7,1.1c0.3,0.7,0.2,1.4-0.2,2  l-39,51.3C35,97.2,34.4,97.5,33.8,97.5z M30.8,53.8h11.8c0.6,0,1.1,0.3,1.5,0.7c0.4,0.5,0.5,1,0.4,1.6l-6.9,31.4L69,46.2H56.6  c-0.6,0-1.1-0.2-1.5-0.7c-0.4-0.4-0.5-1-0.4-1.5l4.8-31.7L30.8,53.8z"></path><path class="st0" d="M78.5,80H18.6C9.7,80,2.5,72.8,2.5,63.9c0-7.9,5.8-14.5,13.4-15.8c0-0.1,0-0.2,0-0.3c0-10,8.2-18.2,18.2-18.2  c2.7,0,5.3,0.6,7.7,1.7c4.7-7,12.5-11.2,21-11.2C76.4,20,87.6,31,87.9,44.5c5.9,3.4,9.6,9.7,9.6,16.5C97.5,71.5,89,80,78.5,80z   M34.1,34.1c-7.5,0-13.7,6.1-13.7,13.7c0,0.6,0.1,1.2,0.2,2c0.1,0.6-0.1,1.3-0.5,1.8c-0.4,0.5-1,0.8-1.7,0.8  C12.1,52.5,7,57.7,7,63.9c0,6.4,5.2,11.6,11.6,11.6h59.9C86.5,75.5,93,69,93,61c0-5.6-3.3-10.7-8.3-13.1c-0.8-0.4-1.3-1.2-1.3-2.1  c0-0.1,0-0.2,0-0.4c0-0.1,0-0.1,0-0.2c0-11.4-9.3-20.7-20.7-20.7c-7.6,0-14.6,4.1-18.2,10.8c-0.3,0.5-0.8,1-1.4,1.1  c-0.6,0.2-1.3,0.1-1.8-0.3C39.1,34.8,36.6,34.1,34.1,34.1z"></path><path class="st0" d="M83.9,34.9c4.8-9.9,0.8-21.8-9-26.9c-6.1-3.1-13.3-3-19.2,0.3c-1.3-1.7-3-3.1-4.9-4.1C44.1,0.6,35.7,3,31.7,9.4  c-5.1-0.9-10.3,0.8-13.9,4.5c-0.9,0.9-1.7,2-2.3,3.2c0,0.1,0,0.1-0.1,0.2c0,0.1-0.1,0.1-0.1,0.2c-2.5,4.9-2.2,10.8,0.7,15.3  c-4.8,9.9-0.8,21.8,9,26.9c4.7,2.4,10.1,2.9,15,1.5c4.7,13.8,4.3,24.8,0.7,36.3l18.9,0.1c-3.3-11.3-3.9-21-0.4-32.9  c3.6-0.9,6.9-3.1,9-6.4c5.1,0.9,10.3-0.8,13.9-4.5c0.9-0.9,1.7-2,2.3-3.2c0-0.1,0-0.1,0.1-0.2c0-0.1,0.1-0.1,0.1-0.2  C87.2,45.3,86.8,39.4,83.9,34.9z"></path><g class="st0"><path class="st1" d="M90.7,62.8H43.2c-3.5,0-6.4-2.9-6.4-6.4V8.9c0-3.5,2.9-6.4,6.4-6.4h47.5c3.5,0,6.4,2.9,6.4,6.4v47.5   C97.1,59.9,94.2,62.8,90.7,62.8z M43.2,6c-1.6,0-2.9,1.3-2.9,2.9v47.5c0,1.6,1.3,2.9,2.9,2.9h47.5c1.6,0,2.9-1.3,2.9-2.9V8.9   c0-1.6-1.3-2.9-2.9-2.9H43.2z"></path><path class="st2" d="M75,78.3H26.2c-2.2,0-4-1.8-4-4V25.5c0-2.2,1.8-4,4-4H75c2.2,0,4,1.8,4,4v48.8C79,76.5,77.2,78.3,75,78.3z"></path><path class="st2" d="M74.3,81.2H26.8c-4.2,0-7.5-3.4-7.5-7.5V26.1c0-4.2,3.4-7.5,7.5-7.5h47.5c4.2,0,7.5,3.4,7.5,7.5v47.5   C81.9,77.8,78.5,81.2,74.3,81.2z M26.8,24.4c-0.9,0-1.7,0.8-1.7,1.7v47.5c0,0.9,0.8,1.7,1.7,1.7h47.5c0.9,0,1.7-0.8,1.7-1.7V26.1   c0-0.9-0.8-1.7-1.7-1.7H26.8z"></path><path class="st1" d="M74.3,80H26.8c-3.5,0-6.4-2.9-6.4-6.4V26.1c0-3.5,2.9-6.4,6.4-6.4h47.5c3.5,0,6.4,2.9,6.4,6.4v47.5   C80.7,77.1,77.9,80,74.3,80z M26.8,23.2c-1.6,0-2.9,1.3-2.9,2.9v47.5c0,1.6,1.3,2.9,2.9,2.9h47.5c1.6,0,2.9-1.3,2.9-2.9V26.1   c0-1.6-1.3-2.9-2.9-2.9H26.8z"></path><path class="st2" d="M58.6,94.6H9.8c-2.2,0-4-1.8-4-4V41.8c0-2.2,1.8-4,4-4h48.8c2.2,0,4,1.8,4,4v48.8   C62.6,92.8,60.8,94.6,58.6,94.6z"></path><path class="st2" d="M58,97.5H10.5c-4.2,0-7.5-3.4-7.5-7.5V42.4c0-4.2,3.4-7.5,7.5-7.5H58c4.2,0,7.5,3.4,7.5,7.5V90   C65.5,94.1,62.1,97.5,58,97.5z M10.5,40.7c-0.9,0-1.7,0.8-1.7,1.7V90c0,0.9,0.8,1.7,1.7,1.7H58c0.9,0,1.7-0.8,1.7-1.7V42.4   c0-0.9-0.8-1.7-1.7-1.7H10.5z"></path><path class="st1" d="M58,96.3H10.5c-3.5,0-6.4-2.9-6.4-6.4V42.4c0-3.5,2.9-6.4,6.4-6.4H58c3.5,0,6.4,2.9,6.4,6.4V90   C64.4,93.5,61.5,96.3,58,96.3z M10.5,39.6c-1.6,0-2.9,1.3-2.9,2.9V90c0,1.6,1.3,2.9,2.9,2.9H58c1.6,0,2.9-1.3,2.9-2.9V42.4   c0-1.6-1.3-2.9-2.9-2.9H10.5z"></path></g><g class="st0"><path class="st2" d="M76.1,22.5c0.1-0.5,0.2-1,0.2-1.6c0-2.7-1.5-4.9-3.6-6c-0.4-3.2-2.9-5.7-6.1-5.7c-0.1,0-0.2,0-0.3,0   c-0.8-2.6-3.1-4.6-5.8-4.6c-1.4,0-2.7,0.5-3.7,1.4c-1.1-1.3-2.8-2.2-4.6-2.2c-2.5,0-4.7,1.6-5.6,3.9c-1-0.9-2.3-1.4-3.7-1.4   c-2.1,0-4,1.2-5.1,2.9c-0.3-0.1-0.7-0.1-1-0.1c-3.4,0-6.1,2.9-6.1,6.5c0,0.4,0,0.8,0.1,1.2c-0.1,0,1,0,0.9,0   c-3.4,0-4.9,2.9-4.9,6.5c0,0.1,0,0.1,0,0.2c0,0.7-5.9,3.3-5.9,6.4c0,3.6,2.1,6.5,5.5,6.5c1.2,0,2-0.4,3-1c1.1,1.3,2.6,2.1,4.4,2.1   c1.4,0,2.7-0.5,3.8-1.4c1.1,1.7,2.9,2.9,5,2.9c2,0,3.7-1,4.9-2.6c0.2,0,0.4,0,0.7,0c0.7,0,1.4-0.1,2-0.4c1,2.1,3.1,3.5,5.4,3.5   c2.9,0,5.3-2.1,5.9-4.9c0.1,0,0.2,0,0.2,0c1,2.2,3.1,3.6,5.5,3.6c2.3,0,4.4-1.4,5.4-3.5c0.7,0.3,1.4,0.4,2.1,0.4   c3.4,0,6.1-2.9,6.1-6.5C80.6,25.7,78.7,23.2,76.1,22.5z"></path><path class="st1" d="M55.3,40.9c-2.4,0-4.7-1.2-6-3.3c-0.5,0.1-1,0.2-1.5,0.1c-1.4,1.6-3.4,2.5-5.5,2.5c-2,0-4-0.9-5.3-2.4   c-2.6,1.5-6,1.1-8.3-0.9c-1,0.5-2,0.7-3.1,0.7c-4.1,0-7.4-3.5-7.4-7.8c0-3.3,1.9-6.1,4.7-7.3c0.3-3.6,3-6.5,6.4-7   c0-4.4,3.6-8,7.8-7.7C38.4,6.1,40.5,5,42.8,5C43.9,5,45,5.3,46,5.9c1.4-2.1,3.6-3.4,6.1-3.4c1.7,0,3.4,0.6,4.7,1.8   c1.1-0.6,2.3-1,3.6-1c3,0,5.6,1.8,6.7,4.6c3.3,0.3,6,2.8,6.6,6.2c2.3,1.4,3.7,4,3.7,6.8c0,0.3,0,0.5,0,0.8c2.6,1.2,4.4,4,4.4,7.1   c0,4.3-3.3,7.8-7.4,7.8c-0.5,0-1-0.1-1.5-0.2c-1.4,2-3.6,3.2-6,3.2c-2.1,0-4-0.9-5.4-2.4C60.3,39.4,57.9,40.9,55.3,40.9z    M49.9,34.8c0.5,0,0.9,0.3,1.1,0.7c0.8,1.7,2.5,2.8,4.3,2.8c2.2,0,4.1-1.6,4.7-3.9c0.2-0.7,0.8-1.1,1.5-1l0.2,0   c0.4,0.1,0.8,0.3,1,0.7c0.8,1.8,2.5,2.9,4.3,2.9c1.8,0,3.4-1.1,4.3-2.8c0.3-0.6,1-0.9,1.6-0.6c0.5,0.2,1.1,0.3,1.6,0.3   c2.7,0,4.9-2.4,4.9-5.3c0-2.4-1.5-4.5-3.6-5.1c-0.6-0.2-1-0.9-0.9-1.5c0.1-0.4,0.1-0.9,0.1-1.3c0-2.1-1.1-4-2.9-4.8   c-0.4-0.2-0.7-0.6-0.7-1c-0.3-2.6-2.4-4.6-4.8-4.6l-0.2,0c-0.6,0-1.1-0.4-1.3-0.9c-0.6-2.2-2.5-3.7-4.6-3.7c-1.1,0-2.1,0.4-2.9,1.1   c-0.5,0.4-1.3,0.4-1.8-0.2C54.8,5.7,53.5,5,52.1,5c-1.9,0-3.7,1.2-4.4,3.1c-0.2,0.4-0.5,0.7-0.9,0.8c-0.4,0.1-0.8,0-1.1-0.3   c-0.9-0.7-1.9-1.1-2.9-1.1c-1.6,0-3.1,0.9-4,2.3c-0.3,0.4-0.8,0.7-1.3,0.6c-3-0.5-5.6,2-5.6,5.2c0,0.3,0,0.6,0.1,0.9   c0.1,0.4,0,0.8-0.3,1.1c-0.3,0.3,0,0.4-0.4,0.4c-2.8-0.2-4.6,2.2-4.6,5.2v0.1c0,0.6-1,1.1-1.6,1.3c-2.2,0.6-4,2.7-4,5.1   c0,2.9,2,5.3,4.7,5.3c0.9,0,1.7-0.3,2.5-0.8c0.5-0.4,1.2-0.3,1.6,0.2c1.7,2,4.6,2.2,6.6,0.6c0.3-0.2,0.6-0.3,1-0.3   c0.4,0.1,0.7,0.3,0.9,0.6c0.9,1.4,2.4,2.3,4,2.3c1.5,0,2.9-0.7,3.8-2.1c0.3-0.4,0.7-0.6,1.2-0.5c0.7,0.1,1.4,0,2.1-0.3   C49.6,34.8,49.7,34.8,49.9,34.8z"></path><path class="st1" d="M72.6,25.3c-3.1,0-5.8,1.2-7.5,3.1c-1.7-1.9-4.5-3.1-7.5-3.1c-3.1,0-5.8,1.2-7.5,3.1c-1.7-1.9-4.5-3.1-7.5-3.1   c-3.1,0-5.8,1.2-7.5,3.1c-1.7-1.9-4.5-3.2-7.6-3.2c-5.3,0-9.4,3.4-9.4,7.8c0,0.1,0,0.3,0,0.4l9.3,62.1c0.1,0.9,0.9,2.1,1.9,2.1   h42.1c0.9,0,1.8-1.1,1.9-2.1L82,33.1c0-0.1,0-0.2,0-0.3C82,28.5,78,25.3,72.6,25.3z"></path><path class="st2" d="M21.8,31.4c0.1-2.1,2.6-2.5,5.6-2.5c3.1,0,5.6,2.6,5.6,4.8c0,0.1,0,0.9,0,0.9h0l4.3,58.7h-6.2L21.8,31.4z"></path><path class="st2" d="M41.2,93.3l-4.3-60.2c0,0,0,0,0,0c0-2.2,2.5-4,5.6-4c3,0,5.6,1.8,5.6,4L48,93.3H41.2z"></path><path class="st2" d="M51.9,33.1C51.9,33.1,51.9,33.1,51.9,33.1c0-2.2,2.6-4.1,5.6-4.1c3,0,5.6,1.8,5.6,4l-5,60.2h-6.4L51.9,33.1z"></path><path class="st2" d="M69.1,93.3h-7l4.9-60l-0.1,0c0-0.2,0.1-0.3,0.1-0.5c0-2.2,2.6-4.4,5.6-4.4c3.1,0,5.5,0.9,5.6,3L69.1,93.3z"></path><path class="st1" d="M67.2,21c-0.2,0-0.3,0-0.5,0c-0.5-1.9-2.2-3.4-4.2-3.7c-0.5-0.9-1.1-1.7-2-2.2c-1.4-0.8-3-1.1-4.6-0.7   c-0.3,0.1-0.5,0.1-0.8,0.2c-1.5-1.5-3.7-2.1-5.7-1.6c-0.6,0.1-1.1,0.3-1.6,0.6c-1.4-1-3.2-1.4-5-0.9c-2.2,0.5-3.9,2.3-4.4,4.4   c-0.4,0-0.7,0.1-1.1,0.2c-1.9,0.5-3.5,1.9-4.2,3.7c-0.1,0-0.3,0.1-0.4,0.1c-1.6,0.4-2.9,1.4-3.7,2.7c-0.8,1.4-1.1,3-0.7,4.6   l2.5-0.6c-0.2-0.9-0.1-1.8,0.4-2.6c0.5-0.8,1.2-1.4,2.1-1.6c0.3-0.1,0.5-0.1,0.8-0.1c0.6,0,1.1-0.4,1.2-1c0.3-1.3,1.3-2.4,2.6-2.7   c0.4-0.1,0.9-0.1,1.4-0.1c0.4,0.1,0.7,0,1-0.3c0.3-0.2,0.4-0.6,0.5-0.9c0-1.6,1.1-2.9,2.6-3.3c1.2-0.3,2.5,0.1,3.4,1   c0.5,0.5,1.2,0.5,1.7,0.1c0.4-0.4,0.9-0.6,1.4-0.7c1.4-0.4,2.9,0.2,3.7,1.4c0.4,0.6,1.2,0.7,1.7,0.4c0.3-0.2,0.7-0.4,1-0.4   c0.9-0.2,1.8-0.1,2.6,0.4c0.2,0.1,0.3,0.3,0.5,0.4c-0.7,0.3-1.3,0.7-1.7,1.2c-0.6-0.4-1.4-0.7-2.1-0.8c-0.4-0.1-0.7-0.1-1.1,0   c-0.8-0.9-1.9-1.5-3.1-1.7c-2.8-0.4-5.4,1.6-5.8,4.4c-0.1,0.6,0.3,1.2,1,1.3c0.6,0.1,1.2-0.4,1.3-1c0.2-1.6,1.7-2.7,3.2-2.5   c0.8,0.1,1.5,0.6,2,1.3c0.3,0.4,0.7,0.6,1.2,0.5c0.3-0.1,0.7-0.1,1-0.1c0.7,0.1,1.3,0.4,1.8,1c0.3,0.3,0.6,0.4,1,0.4   c0.4,0,0.7-0.3,0.9-0.6c0.5-1.1,1.7-1.8,3-1.6c1.4,0.2,2.4,1.3,2.5,2.7c0,0.3,0.2,0.6,0.4,0.8c0.3,0.2,0.6,0.3,0.9,0.2   c0.3-0.1,0.6-0.1,0.9,0c1.6,0.2,2.7,1.7,2.5,3.2c-0.1,0.6,0.4,1.2,1,1.3c0.1,0,0.1,0,0.2,0c0.6,0,1-0.4,1.1-1   C72,24,70,21.3,67.2,21z"></path></g><path class="st0" d="M97.4,7.1c0-1.2-0.3-2-0.9-2.5C96,4.1,95.2,4,94.3,4.1c-9.3,1.9-18.7,1.1-27.8,0.3c-9.3-0.8-18.8-1.6-28.2,0.4  c-1.9,0.4-3.4,0.9-3.4,3.6V67c-4.6-3.4-10.1-4.3-16.3-3c-6.9,1.6-11.8,5.2-14.6,11.2c-3.1,6.4-1.2,13.5,4.8,17.6  c3.4,2.3,6.8,3.5,10.7,3.5c2.2,0,4.6-0.4,7.1-1.2c9.1-2.8,13.7-9.3,13.7-19.4V29.4c8.4-1.7,16.8-0.8,25.6,0.1  c8.6,0.9,17.2,1.8,26.4,0.1v37.8c-4.6-3.8-10.1-4.8-16.4-3.5c-6.9,1.5-11.8,5.2-14.7,11.3c-3.1,6.4-1.1,13.5,4.8,17.6  c5.2,3.6,10.8,4.4,17.5,2.4c9.2-2.7,14.1-9.4,14.1-19.5V19.1C97.5,15.1,97.5,11.1,97.4,7.1z M88,70.7c4.5,2.7,5.9,7.6,3.4,12.2  c-2.2,3.9-5.7,6.4-10.9,7.6c-4,0.9-7.7,0.5-11-1.3c-2.4-1.3-4-3.3-4.6-5.6c-0.6-2.3-0.2-4.8,1.1-7.1c2.5-4.2,6.5-6.7,12.2-7.6  c0.6-0.1,1.3-0.1,1.8-0.2l0.4,0C83.5,68.9,85.9,69.5,88,70.7z M40.2,10.4c0-0.6,0-0.6,0.6-0.7c9-1.9,17.8-1.1,27.1-0.3  c5.5,0.5,11.2,1,17.1,0.9c2.6,0,4.8-0.3,7.8-0.8c0,0.1,0,0.2,0,0.3c0,0.4,0,0.7,0,1c0,2.2,0,4.3,0,6.5c0,2.2,0,4.3,0,6.5  c0,0.2,0,0.3,0,0.4c0,0,0,0.1,0,0.1c0,0,0,0,0,0c-8.4,1.7-17.3,0.7-26-0.2c-5.2-0.6-10.5-1.2-15.8-1.2c-3.6,0-7.1,0.3-10.6,1  c-0.1,0-0.1,0-0.2,0c0-1.3,0-2.6,0-3.9l0-2c0-0.8,0-1.7,0-2.5C40.2,13.9,40.2,12.1,40.2,10.4z M33.5,83.9L33.5,83.9  c-2.8,4.3-8.5,7.1-14.4,7.1c-2.7-0.1-5.1-0.7-7.1-1.8c-4.7-2.7-6.1-7.8-3.4-12.5c2.2-3.8,5.7-6.3,10.8-7.5c1.4-0.3,2.7-0.5,4-0.5  c2.2,0,4.3,0.5,6.3,1.4c2.7,1.3,4.6,3.4,5.4,5.9C35.7,78.6,35.2,81.4,33.5,83.9z"></path><g class="st0"><g class="st1"><path class="st3" d="M90.6,70.7H8c-1.8,0-3.3-1.5-3.3-3.3V15.6c0-1.8,1.5-3.3,3.3-3.3h82.6c1.8,0,3.3,1.5,3.3,3.3v51.8    C93.9,69.2,92.4,70.7,90.6,70.7z"></path><path d="M90.2,72.9H8.5c-3.3,0-6-2.7-6-6V16.1c0-3.3,2.7-6,6-6h81.7c3.3,0,6,2.7,6,6v50.8C96.2,70.2,93.5,72.9,90.2,72.9z     M8.5,14.7c-0.8,0-1.4,0.6-1.4,1.4v50.8c0,0.8,0.6,1.4,1.4,1.4h81.7c0.8,0,1.4-0.6,1.4-1.4V16.1c0-0.8-0.6-1.4-1.4-1.4H8.5z"></path></g><path class="st1" d="M66.4,46.6c-5.5,0-10-4.5-10-10c0-5.5,4.5-10,10-10s10,4.5,10,10C76.5,42.1,72,46.6,66.4,46.6z M66.4,28.8   c-4.3,0-7.8,3.5-7.8,7.8c0,4.3,3.5,7.8,7.8,7.8c4.3,0,7.8-3.5,7.8-7.8C74.2,32.3,70.7,28.8,66.4,28.8z"></path><path class="st1" d="M66.4,51.9c-8.4,0-15.3-6.9-15.3-15.3S58,21.3,66.4,21.3c8.4,0,15.3,6.9,15.3,15.3S74.9,51.9,66.4,51.9z    M66.4,23.6c-7.2,0-13,5.8-13,13s5.8,13,13,13c7.2,0,13-5.8,13-13S73.6,23.6,66.4,23.6z"></path><path class="st2" d="M76.3,89.9c-2,0-4.1-0.2-6.3-0.7c-9.9-2.1-14.1-10.5-18.2-18.7c-0.2-0.4-0.5-0.9-0.8-1.5   c-1.9-3.5-3.5-6.7-3.4-9.3c0.1-4.6,3.6-6.9,7.1-6.8c1.4,0,2.6,0.4,3.7,1c0.5,0.3,0.9,0.7,1.3,1V36.6c0-4.2,2.8-7.2,6.9-7.2   c3.3,0,6.9,2.3,6.9,7.2v9.7c1.5-0.5,3.1-0.5,4.5,0.2c1.5,0.7,2.6,1.9,3.2,3.4c1.5-0.5,3.1-0.3,4.6,0.4c1.5,0.7,2.7,1.9,3.3,3.4   c1.7-0.5,3.3-0.4,4.9,0.5c2.2,1.3,3.6,3.6,3.6,6.4c0,11.5-3.3,20.5-9.2,25.2C85,88.6,81,89.9,76.3,89.9z M54.6,58.6   c-1.2,0-1.2,0.8-1.3,1.2c0,1.3,1.9,4.8,2.8,6.5c0.3,0.6,0.6,1.2,0.9,1.6C60.8,75.5,64,82,71.2,83.6c5.7,1.2,10.2,0.5,13.5-2.2   c4.5-3.7,7-11.1,7-20.8c0-0.6-0.2-1.2-0.7-1.4c-0.2-0.1-0.3-0.1-0.3-0.1c0,0-0.1,0-0.4,0.2l-1.7,1.4c-0.8,0.7-1.9,0.9-2.9,0.5   c-1-0.4-1.7-1.3-1.8-2.4l-0.2-2.5c0-0.2-0.2-0.7-0.6-0.9c-0.3-0.1-0.4-0.2-0.7,0L81,56.9c-0.8,0.7-1.9,0.9-3,0.5   c-1-0.4-1.7-1.3-1.8-2.4L76,52.6c0-0.2-0.2-0.7-0.6-0.9c0,0-0.3,0.1-0.8,0.5L72.4,54c-0.8,0.7-2,0.9-3.1,0.4   c-1-0.5-1.7-1.5-1.7-2.6V36.6c0-1.2-0.5-1.5-1.1-1.5s-1.1,0.3-1.1,1.5v29.9c0,1.3-0.9,2.5-2.2,2.8c-1.3,0.3-2.6-0.3-3.2-1.5   l-3.6-7.2c-0.4-0.7-0.8-1.6-1-1.7C55.3,58.7,55,58.6,54.6,58.6C54.6,58.6,54.6,58.6,54.6,58.6z"></path><g class="st1"><path class="st3" d="M62.4,66.4l-3.3-6.6c-0.8-1.7-1.3-2.8-2.3-3.5c-0.7-0.4-1.4-0.6-2.2-0.6c-2.1,0-4.2,1.2-4.2,4    c0,2.6,2.8,7.2,3.9,9.5c3.9,7.9,7.7,15.3,16.2,17.2c6.6,1.4,11.9,0.5,15.9-2.7c5.2-4.2,8.1-12.4,8.1-23c0-1.7-0.8-3.1-2.1-3.9    c-1.3-0.7-2.4-0.6-3.7,0.2l-1.9,1.6l-0.2-2.5c-0.2-1.4-1-2.6-2.2-3.2c-1.3-0.6-2.3-0.5-3.6,0.2l-1.8,1.6l-0.2-2.5    c-0.2-1.4-1-2.6-2.2-3.2c-1.2-0.6-2.6-0.2-3.9,0.8l-2.2,1.9V36.6c0-3-1.9-4.3-4-4.3c-2.1,0-4,1.3-4,4.3V66.4z"></path><path d="M76.1,88.8c-1.9,0-3.9-0.2-6-0.7C60.8,86,56.7,77.9,52.7,70c-0.2-0.4-0.5-0.9-0.8-1.5c-1.8-3.4-3.4-6.4-3.3-8.7    c0.1-3.9,3.1-5.7,5.8-5.7c0,0,0.1,0,0.1,0c1.2,0,2.2,0.3,3.1,0.8c1.4,0.8,2,2.1,2.7,3.7l0.3,0.6V36.6c0-4.2,3-6.1,5.7-6.1    c2.8,0,5.7,1.9,5.7,6.1v11.6c1.7-1.1,3.5-1.4,5.1-0.6c1.6,0.8,2.6,2.1,3,3.8c1.6-0.8,3.2-0.9,4.8-0.1c1.6,0.8,2.7,2.2,3.1,3.9    c1.7-0.9,3.4-0.9,5.1,0c1.9,1.1,3,3.1,3,5.4c0,11.1-3.1,19.8-8.7,24.3C84.3,87.5,80.6,88.8,76.1,88.8z M54.4,57.5    c-0.6,0-2.4,0.2-2.4,2.3c0,1.6,1.8,5,2.9,7c0.3,0.6,0.6,1.2,0.8,1.6c3.9,7.8,7.3,14.6,15.1,16.3c6,1.3,10.9,0.5,14.5-2.4    c4.8-3.9,7.5-11.6,7.5-21.7c0-1.1-0.5-1.9-1.2-2.4c-0.6-0.3-1-0.4-1.9,0.1l-1.8,1.5c-0.5,0.4-1.2,0.5-1.8,0.3    c-0.6-0.2-1-0.8-1.1-1.4l-0.2-2.5c-0.1-0.8-0.6-1.5-1.3-1.8c-0.6-0.3-1-0.3-1.8,0.1L80,56c-0.5,0.4-1.2,0.6-1.8,0.3    c-0.6-0.2-1-0.8-1.1-1.4L77,52.5c-0.1-0.8-0.6-1.5-1.3-1.8c-0.7-0.3-1.5,0.1-2,0.6l-2.2,1.9c-0.5,0.4-1.2,0.5-1.8,0.3    c-0.6-0.3-1-0.9-1-1.6V36.6c0-2.3-1.4-2.6-2.3-2.6c-0.9,0-2.3,0.3-2.3,2.6v29.9c0,0.8-0.5,1.5-1.3,1.7c-0.8,0.2-1.6-0.2-1.9-0.9    L57.3,60c-0.6-1.3-0.9-1.9-1.4-2.2C55.5,57.6,55,57.5,54.4,57.5C54.5,57.5,54.5,57.5,54.4,57.5z"></path></g></g><g class="st0"><path class="st1" d="M98,20.6c0-1.4-1.1-2.6-2.6-2.6H5.6C4.1,18,3,19.1,3,20.6v58.9C3,80.9,4.1,82,5.6,82h89.9   c1.4,0,2.6-1.1,2.6-2.6V20.6z M93,29H82v-6h11V29z M19,45H8v-6h11V45z M19,55v6H8v-6H19z M25,23h51v54H25V23z M82,55h11v6H82V55z    M82,45v-6h11v6H82z M19,23v6H8v-6H19z M8,71h11v6H8V71z M82,77v-6h11v6H82z"></path><path class="st1" d="M64.6,49L38.8,37.4c-0.4-0.2-0.9-0.1-1.2,0.1c-0.3,0.2-0.6,0.6-0.6,1v23c0,0.4,0.3,0.7,0.6,1   c0.2,0.1,0.5,0.2,0.7,0.2c0.2,0,0.3,0,0.5-0.1L64.6,51c0.4-0.2,0.7-0.6,0.7-1C65.3,49.6,65.1,49.1,64.6,49z"></path></g><path class="st0" d="M52.9,6.5l12.2,24.7c0.5,0.9,1.4,1.6,2.4,1.8l27.2,4c2.6,0.4,3.7,3.6,1.8,5.5L76.8,61.6  c-0.8,0.7-1.1,1.8-0.9,2.8l4.7,27.1c0.5,2.6-2.3,4.6-4.7,3.4L51.5,82.1c-0.9-0.5-2.1-0.5-3,0L24.1,95c-2.4,1.2-5.1-0.8-4.7-3.4  l4.7-27.1c0.2-1-0.2-2.1-0.9-2.8L3.5,42.4c-1.9-1.9-0.9-5.1,1.8-5.5l27.2-4c1-0.2,2-0.8,2.4-1.8L47.1,6.5  C48.3,4.1,51.7,4.1,52.9,6.5z"></path><g><g><path d="M89.2,61.5H78.6V59h10.6c3.2,0,5.8-2.6,5.8-5.8V19.5c0-3.2-2.6-5.8-5.8-5.8H57.8v-2.5h31.4c4.6,0,8.3,3.7,8.3,8.3v33.7    C97.5,57.8,93.8,61.5,89.2,61.5z"></path></g><path d="M76.1,91.9H7.5c-2.8,0-5-2.2-5-5V37.1c0-2.8,2.2-5,5-5h68.6c2.8,0,5,2.2,5,5v49.8C81.1,89.7,78.9,91.9,76.1,91.9z    M7.5,37.1v49.8h68.6V37.1H7.5z"></path><path d="M45.9,16.9h11.2c1.3,0,2.3-1,2.3-2.3v-4.1c0-1.3-1-2.3-2.3-2.3H45.9V16.9z"></path><path d="M48.4,15.4h-6.9V9.5h6.9V15.4z M42.1,14.8h5.7v-4.6h-5.7V14.8z"></path><circle cx="67.9" cy="78.7" r="3.7"></circle></g><text x="0" y="115" fill="#000000" font-size="5px" font-weight="bold" font-family="'Helvetica Neue', Helvetica, Arial-Unicode, Arial, Sans-serif">Created by Javier Castañeda</text><text x="0" y="120" fill="#000000" font-size="5px" font-weight="bold" font-family="'Helvetica Neue', Helvetica, Arial-Unicode, Arial, Sans-serif">from the Noun Project</text></svg>